<?xml version="1.0" standalone="no"?>
<!DOCTYPE svg PUBLIC "-//W3C//DTD SVG 20010904//EN"
 "http://www.w3.org/TR/2001/REC-SVG-20010904/DTD/svg10.dtd">
<svg version="1.0" xmlns="http://www.w3.org/2000/svg"
 width="192.000000pt" height="192.000000pt" viewBox="0 0 192.000000 192.000000"
 preserveAspectRatio="xMidYMid meet">
<metadata>
Created by potrace 1.16, written by Peter Selinger 2001-2019
</metadata>
<g transform="translate(0.000000,192.000000) scale(0.100000,-0.100000)"
fill="#000000" stroke="none">
<path d="M0 960 l0 -960 960 0 960 0 0 960 0 960 -960 0 -960 0 0 -960z m1138
865 c165 -34 302 -107 425 -224 92 -88 144 -161 197 -275 61 -132 75 -199 74
-366 -1 -127 -4 -156 -28 -233 -48 -161 -123 -283 -242 -398 -85 -80 -143
-121 -237 -163 -246 -111 -514 -108 -752 9 -179 87 -310 219 -399 400 -75 152
-91 218 -91 390 0 161 15 232 75 361 53 114 105 187 197 275 120 115 259 189
418 224 83 18 278 18 363 0z"/>
<path d="M1073 1579 c-41 -12 -83 -66 -83 -108 0 -68 59 -131 123 -131 26 0
45 9 70 33 98 92 17 241 -110 206z"/>
<path d="M825 1256 l-150 -64 -3 -140 -3 -141 34 -6 c19 -4 45 -5 58 -3 23 3
24 7 29 103 l5 100 39 13 c21 7 41 10 44 7 3 -3 0 -29 -6 -57 -6 -29 -22 -116
-37 -193 -14 -77 -28 -150 -31 -163 -4 -20 -9 -22 -47 -16 -23 3 -67 12 -97
19 -30 7 -76 16 -101 19 l-46 7 -12 -58 c-6 -31 -7 -61 -3 -65 9 -9 262 -62
349 -74 28 -3 53 -2 56 2 3 5 12 44 21 87 9 43 22 92 29 110 l13 31 52 -48 52
-49 0 -172 c0 -190 -2 -185 65 -185 68 0 65 -11 65 234 l0 222 -61 53 c-66 58
-64 49 -37 162 l11 47 21 -20 c69 -64 171 -108 253 -108 l43 0 0 65 0 65 -33
0 c-94 0 -152 40 -233 163 -95 144 -117 147 -339 53z"/>
</g>
</svg>
